<?xml version="1.0" standalone="no"?>
<!DOCTYPE svg PUBLIC "-//W3C//DTD SVG 20010904//EN"
 "http://www.w3.org/TR/2001/REC-SVG-20010904/DTD/svg10.dtd">
<svg version="1.0" xmlns="http://www.w3.org/2000/svg"
 width="1208.000000pt" height="603.000000pt" viewBox="0 0 1208.000000 603.000000"
 preserveAspectRatio="xMidYMid meet">

<g transform="translate(0.000000,603.000000) scale(0.100000,-0.100000)"
fill="#000000" stroke="none">
<path d="M4282 4901 c-210 -335 -382 -612 -382 -615 0 -4 88 -151 195 -327
107 -177 195 -325 195 -330 0 -5 -108 -9 -256 -9 -141 0 -254 -4 -252 -9 2 -4
160 -261 353 -570 l349 -561 213 0 c207 0 213 1 204 19 -6 10 -103 172 -215
360 l-205 341 259 0 c143 0 260 3 260 6 0 3 -144 239 -320 524 -176 286 -320
522 -320 526 0 5 287 459 305 482 2 2 92 -138 202 -310 l199 -313 979 0 979 0
211 322 c115 177 212 324 215 326 5 5 280 -463 280 -476 0 -4 -137 -247 -305
-542 -168 -294 -305 -537 -305 -540 0 -2 109 -6 243 -7 l243 -3 -194 -335
c-106 -184 -202 -352 -213 -372 l-19 -38 228 0 229 0 337 565 c185 311 336
568 336 570 0 3 -108 5 -240 5 -195 0 -240 3 -240 14 0 35 37 102 208 379 101
164 181 304 179 311 -3 8 -175 284 -383 615 -244 390 -381 598 -387 592 -5 -5
-152 -234 -326 -508 l-316 -498 -745 0 -744 0 -315 497 c-174 273 -321 502
-327 508 -7 7 -123 -170 -392 -599z"/>
<path d="M5110 3173 c1 -5 47 -84 103 -178 l103 -170 227 -3 c125 -1 227 1
226 5 0 5 -53 85 -118 178 l-117 170 -212 3 c-117 1 -212 -1 -212 -5z"/>
<path d="M6583 3168 c-17 -22 -203 -336 -203 -342 0 -4 89 -5 197 -4 l197 3
103 170 c56 94 102 173 103 178 0 4 -87 7 -194 7 -143 0 -196 -3 -203 -12z"/>
<path d="M6017 2358 c-177 -276 -471 -725 -480 -735 -9 -9 -64 64 -227 303
l-215 314 -427 0 c-236 0 -428 -3 -428 -7 1 -5 54 -91 118 -193 l118 -185 189
-5 189 -5 319 -500 c175 -275 321 -501 325 -502 4 -1 118 170 254 380 136 210
253 390 260 400 12 16 42 -23 288 -382 151 -220 278 -400 282 -398 3 1 149
220 324 487 175 267 319 486 320 488 1 2 89 10 195 18 107 8 199 17 205 18 10
4 244 368 244 380 0 3 -192 6 -427 6 l-428 0 -180 -297 c-99 -163 -190 -312
-202 -332 l-21 -35 -276 417 c-152 229 -278 417 -281 417 -2 0 -20 -24 -38
-52z"/>
<path d="M5895 744 c-88 -124 -161 -230 -163 -235 -2 -5 121 -9 297 -9 166 0
301 3 301 7 0 10 -264 463 -270 463 -3 0 -77 -102 -165 -226z"/>
</g>
</svg>
